<mxfile host="app.diagrams.net" agent="Mozilla/5.0 (X11; Linux x86_64) AppleWebKit/537.36 (KHTML, like Gecko) Chrome/132.0.0.0 Safari/537.36" version="26.0.10">
  <diagram name="Page-1" id="74e2e168-ea6b-b213-b513-2b3c1d86103e">
    <mxGraphModel dx="1131" dy="1127" grid="1" gridSize="10" guides="1" tooltips="1" connect="1" arrows="1" fold="1" page="1" pageScale="1" pageWidth="1100" pageHeight="850" background="none" math="0" shadow="0">
      <root>
        <mxCell id="0" />
        <mxCell id="1" parent="0" />
        <mxCell id="77e6c97f196da883-1" value="&lt;font style=&quot;font-size: 14px;&quot;&gt;Sequence&lt;/font&gt;" style="swimlane;html=1;childLayout=stackLayout;startSize=20;rounded=0;shadow=0;labelBackgroundColor=none;strokeWidth=1;fontFamily=Verdana;fontSize=8;align=center;" parent="1" vertex="1">
          <mxGeometry x="70" y="40" width="970" height="440" as="geometry" />
        </mxCell>
        <mxCell id="77e6c97f196da883-2" value="1" style="swimlane;html=1;startSize=20;" parent="77e6c97f196da883-1" vertex="1">
          <mxGeometry y="20" width="160" height="420" as="geometry" />
        </mxCell>
        <mxCell id="77e6c97f196da883-8" value="&lt;font style=&quot;font-size: 20px;&quot;&gt;Plan&lt;/font&gt;" style="rounded=1;whiteSpace=wrap;html=1;shadow=0;labelBackgroundColor=none;strokeWidth=1;fontFamily=Verdana;fontSize=8;align=center;" parent="77e6c97f196da883-2" vertex="1">
          <mxGeometry x="169" y="141" width="100" height="95" as="geometry" />
        </mxCell>
        <mxCell id="6fJ42V7ynfqkldquAGAS-8" value="gemini&lt;div&gt;1.5-flash&lt;/div&gt;" style="text;html=1;align=center;verticalAlign=middle;whiteSpace=wrap;rounded=0;fontSize=18;" vertex="1" parent="77e6c97f196da883-2">
          <mxGeometry x="159" y="70" width="140" height="30" as="geometry" />
        </mxCell>
        <mxCell id="6fJ42V7ynfqkldquAGAS-12" value="plan.md" style="shape=document;whiteSpace=wrap;html=1;boundedLbl=1;fontSize=20;" vertex="1" parent="77e6c97f196da883-2">
          <mxGeometry x="175" y="290" width="90" height="50" as="geometry" />
        </mxCell>
        <mxCell id="6fJ42V7ynfqkldquAGAS-18" value="file" style="endArrow=classic;html=1;rounded=0;exitX=0.5;exitY=1;exitDx=0;exitDy=0;entryX=0.5;entryY=0;entryDx=0;entryDy=0;" edge="1" parent="77e6c97f196da883-2" source="77e6c97f196da883-8" target="6fJ42V7ynfqkldquAGAS-12">
          <mxGeometry width="50" height="50" relative="1" as="geometry">
            <mxPoint x="569" y="300" as="sourcePoint" />
            <mxPoint x="619" y="250" as="targetPoint" />
          </mxGeometry>
        </mxCell>
        <mxCell id="6fJ42V7ynfqkldquAGAS-40" value="prompt.md" style="shape=document;whiteSpace=wrap;html=1;boundedLbl=1;fontSize=20;" vertex="1" parent="77e6c97f196da883-2">
          <mxGeometry x="16" y="163.5" width="120" height="50" as="geometry" />
        </mxCell>
        <mxCell id="6fJ42V7ynfqkldquAGAS-41" value="" style="endArrow=classic;html=1;rounded=0;exitX=1;exitY=0.5;exitDx=0;exitDy=0;entryX=0;entryY=0.5;entryDx=0;entryDy=0;" edge="1" parent="77e6c97f196da883-2" source="6fJ42V7ynfqkldquAGAS-40" target="77e6c97f196da883-8">
          <mxGeometry width="50" height="50" relative="1" as="geometry">
            <mxPoint x="420" y="280" as="sourcePoint" />
            <mxPoint x="470" y="230" as="targetPoint" />
          </mxGeometry>
        </mxCell>
        <mxCell id="77e6c97f196da883-3" value="2" style="swimlane;html=1;startSize=20;" parent="77e6c97f196da883-1" vertex="1">
          <mxGeometry x="160" y="20" width="160" height="420" as="geometry" />
        </mxCell>
        <mxCell id="77e6c97f196da883-11" value="&lt;font style=&quot;font-size: 20px;&quot;&gt;Code&lt;/font&gt;" style="rounded=1;whiteSpace=wrap;html=1;shadow=0;labelBackgroundColor=none;strokeWidth=1;fontFamily=Verdana;fontSize=8;align=center;" parent="77e6c97f196da883-3" vertex="1">
          <mxGeometry x="179" y="141" width="100" height="95" as="geometry" />
        </mxCell>
        <mxCell id="6fJ42V7ynfqkldquAGAS-9" value="claude&lt;div&gt;3-5-sonnet&lt;/div&gt;" style="text;html=1;align=center;verticalAlign=middle;whiteSpace=wrap;rounded=0;fontSize=18;" vertex="1" parent="77e6c97f196da883-3">
          <mxGeometry x="159" y="70" width="140" height="30" as="geometry" />
        </mxCell>
        <mxCell id="6fJ42V7ynfqkldquAGAS-13" value="&lt;font style=&quot;font-size: 20px;&quot;&gt;index.html&lt;/font&gt;" style="shape=document;whiteSpace=wrap;html=1;boundedLbl=1;" vertex="1" parent="77e6c97f196da883-3">
          <mxGeometry x="174" y="290" width="110" height="50" as="geometry" />
        </mxCell>
        <mxCell id="6fJ42V7ynfqkldquAGAS-19" value="file" style="endArrow=classic;html=1;rounded=0;exitX=0.5;exitY=1;exitDx=0;exitDy=0;entryX=0.5;entryY=0;entryDx=0;entryDy=0;" edge="1" parent="77e6c97f196da883-3" source="77e6c97f196da883-11" target="6fJ42V7ynfqkldquAGAS-13">
          <mxGeometry width="50" height="50" relative="1" as="geometry">
            <mxPoint x="409" y="300" as="sourcePoint" />
            <mxPoint x="459" y="250" as="targetPoint" />
          </mxGeometry>
        </mxCell>
        <mxCell id="77e6c97f196da883-4" value="3" style="swimlane;html=1;startSize=20;" parent="77e6c97f196da883-1" vertex="1">
          <mxGeometry x="320" y="20" width="160" height="420" as="geometry" />
        </mxCell>
        <mxCell id="6fJ42V7ynfqkldquAGAS-1" value="&lt;font style=&quot;font-size: 20px;&quot;&gt;Review&lt;/font&gt;" style="rounded=1;whiteSpace=wrap;html=1;shadow=0;labelBackgroundColor=none;strokeWidth=1;fontFamily=Verdana;fontSize=8;align=center;" vertex="1" parent="77e6c97f196da883-4">
          <mxGeometry x="179" y="138" width="100" height="100" as="geometry" />
        </mxCell>
        <mxCell id="6fJ42V7ynfqkldquAGAS-10" value="gpt&lt;div&gt;4-0-mini&lt;/div&gt;" style="text;html=1;align=center;verticalAlign=middle;whiteSpace=wrap;rounded=0;fontSize=18;" vertex="1" parent="77e6c97f196da883-4">
          <mxGeometry x="159" y="70" width="140" height="30" as="geometry" />
        </mxCell>
        <mxCell id="6fJ42V7ynfqkldquAGAS-16" value="&lt;font style=&quot;font-size: 20px;&quot;&gt;review.md&lt;/font&gt;" style="shape=document;whiteSpace=wrap;html=1;boundedLbl=1;" vertex="1" parent="77e6c97f196da883-4">
          <mxGeometry x="174" y="290" width="110" height="50" as="geometry" />
        </mxCell>
        <mxCell id="6fJ42V7ynfqkldquAGAS-20" value="file" style="endArrow=classic;html=1;rounded=0;exitX=0.5;exitY=1;exitDx=0;exitDy=0;entryX=0.5;entryY=0;entryDx=0;entryDy=0;" edge="1" parent="77e6c97f196da883-4" source="6fJ42V7ynfqkldquAGAS-1" target="6fJ42V7ynfqkldquAGAS-16">
          <mxGeometry width="50" height="50" relative="1" as="geometry">
            <mxPoint x="249" y="300" as="sourcePoint" />
            <mxPoint x="299" y="250" as="targetPoint" />
          </mxGeometry>
        </mxCell>
        <mxCell id="77e6c97f196da883-5" value="4" style="swimlane;html=1;startSize=20;" parent="77e6c97f196da883-1" vertex="1">
          <mxGeometry x="480" y="20" width="170" height="420" as="geometry" />
        </mxCell>
        <mxCell id="6fJ42V7ynfqkldquAGAS-3" value="&lt;font style=&quot;font-size: 20px;&quot;&gt;Run&lt;/font&gt;" style="rounded=1;whiteSpace=wrap;html=1;shadow=0;labelBackgroundColor=none;strokeWidth=1;fontFamily=Verdana;fontSize=8;align=center;" vertex="1" parent="77e6c97f196da883-5">
          <mxGeometry x="192" y="139" width="100" height="100" as="geometry" />
        </mxCell>
        <mxCell id="6fJ42V7ynfqkldquAGAS-11" value="python" style="text;html=1;align=center;verticalAlign=middle;whiteSpace=wrap;rounded=0;fontSize=18;" vertex="1" parent="77e6c97f196da883-5">
          <mxGeometry x="149" y="70" width="140" height="30" as="geometry" />
        </mxCell>
        <mxCell id="6fJ42V7ynfqkldquAGAS-21" value="" style="endArrow=classic;html=1;rounded=0;exitX=0.5;exitY=1;exitDx=0;exitDy=0;" edge="1" parent="77e6c97f196da883-5" source="6fJ42V7ynfqkldquAGAS-3">
          <mxGeometry width="50" height="50" relative="1" as="geometry">
            <mxPoint x="234" y="239" as="sourcePoint" />
            <mxPoint x="242" y="290" as="targetPoint" />
          </mxGeometry>
        </mxCell>
        <mxCell id="6fJ42V7ynfqkldquAGAS-33" value="&lt;font style=&quot;font-size: 20px;&quot;&gt;Serve&amp;nbsp;&lt;/font&gt;&lt;div&gt;&lt;font style=&quot;font-size: 20px;&quot;&gt;Index.html&lt;/font&gt;&lt;/div&gt;" style="rounded=1;whiteSpace=wrap;html=1;" vertex="1" parent="77e6c97f196da883-5">
          <mxGeometry x="188" y="290" width="120" height="60" as="geometry" />
        </mxCell>
        <mxCell id="6fJ42V7ynfqkldquAGAS-4" value="&lt;span style=&quot;color: rgb(0, 0, 0); font-family: Helvetica; font-size: 9px; font-style: normal; font-variant-ligatures: normal; font-variant-caps: normal; font-weight: 400; letter-spacing: normal; orphans: 2; text-align: center; text-indent: 0px; text-transform: none; widows: 2; word-spacing: 0px; -webkit-text-stroke-width: 0px; white-space: nowrap; background-color: rgb(255, 255, 255); text-decoration-thickness: initial; text-decoration-style: initial; text-decoration-color: initial; display: inline !important; float: none;&quot;&gt;STDOUT&lt;/span&gt;" style="endArrow=classic;html=1;rounded=0;exitX=1;exitY=0.5;exitDx=0;exitDy=0;entryX=0;entryY=0.5;entryDx=0;entryDy=0;" edge="1" parent="77e6c97f196da883-1" source="77e6c97f196da883-11" target="6fJ42V7ynfqkldquAGAS-1">
          <mxGeometry width="50" height="50" relative="1" as="geometry">
            <mxPoint x="599" y="636" as="sourcePoint" />
            <mxPoint x="649" y="586" as="targetPoint" />
          </mxGeometry>
        </mxCell>
        <mxCell id="6fJ42V7ynfqkldquAGAS-7" value="" style="endArrow=classic;html=1;rounded=0;exitX=1;exitY=0.5;exitDx=0;exitDy=0;entryX=0;entryY=0.5;entryDx=0;entryDy=0;" edge="1" parent="77e6c97f196da883-1" source="6fJ42V7ynfqkldquAGAS-1" target="6fJ42V7ynfqkldquAGAS-3">
          <mxGeometry width="50" height="50" relative="1" as="geometry">
            <mxPoint x="449" y="219" as="sourcePoint" />
            <mxPoint x="509" y="218" as="targetPoint" />
          </mxGeometry>
        </mxCell>
        <mxCell id="77e6c97f196da883-26" style="edgeStyle=orthogonalEdgeStyle;rounded=1;html=1;labelBackgroundColor=none;startArrow=none;startFill=0;startSize=5;endArrow=classicThin;endFill=1;endSize=5;jettySize=auto;orthogonalLoop=1;strokeWidth=1;fontFamily=Verdana;fontSize=8" parent="77e6c97f196da883-1" source="77e6c97f196da883-8" target="77e6c97f196da883-11" edge="1">
          <mxGeometry relative="1" as="geometry" />
        </mxCell>
        <mxCell id="6fJ42V7ynfqkldquAGAS-32" value="&lt;font style=&quot;font-size: 9px;&quot;&gt;STDOUT&lt;/font&gt;" style="edgeLabel;html=1;align=center;verticalAlign=middle;resizable=0;points=[];" vertex="1" connectable="0" parent="77e6c97f196da883-26">
          <mxGeometry x="-0.4" y="3" relative="1" as="geometry">
            <mxPoint x="19" y="3" as="offset" />
          </mxGeometry>
        </mxCell>
        <mxCell id="6fJ42V7ynfqkldquAGAS-22" value="5" style="swimlane;html=1;startSize=20;" vertex="1" parent="1">
          <mxGeometry x="720" y="60" width="160" height="420" as="geometry" />
        </mxCell>
        <mxCell id="6fJ42V7ynfqkldquAGAS-23" value="&lt;font style=&quot;font-size: 20px;&quot;&gt;Open&lt;/font&gt;" style="rounded=1;whiteSpace=wrap;html=1;shadow=0;labelBackgroundColor=none;strokeWidth=1;fontFamily=Verdana;fontSize=8;align=center;" vertex="1" parent="6fJ42V7ynfqkldquAGAS-22">
          <mxGeometry x="179" y="139" width="100" height="100" as="geometry" />
        </mxCell>
        <mxCell id="6fJ42V7ynfqkldquAGAS-24" value="xdg-open" style="text;html=1;align=center;verticalAlign=middle;whiteSpace=wrap;rounded=0;fontSize=18;" vertex="1" parent="6fJ42V7ynfqkldquAGAS-22">
          <mxGeometry x="149" y="70" width="140" height="30" as="geometry" />
        </mxCell>
        <mxCell id="6fJ42V7ynfqkldquAGAS-26" value="" style="endArrow=classic;html=1;rounded=0;exitX=0.5;exitY=1;exitDx=0;exitDy=0;entryX=0.5;entryY=0;entryDx=0;entryDy=0;" edge="1" parent="6fJ42V7ynfqkldquAGAS-22" source="6fJ42V7ynfqkldquAGAS-23">
          <mxGeometry width="50" height="50" relative="1" as="geometry">
            <mxPoint x="89" y="300" as="sourcePoint" />
            <mxPoint x="229" y="290" as="targetPoint" />
          </mxGeometry>
        </mxCell>
        <mxCell id="6fJ42V7ynfqkldquAGAS-29" value="&lt;font style=&quot;font-size: 20px;&quot;&gt;browser&lt;/font&gt;" style="rounded=1;whiteSpace=wrap;html=1;" vertex="1" parent="6fJ42V7ynfqkldquAGAS-22">
          <mxGeometry x="169" y="290" width="120" height="50" as="geometry" />
        </mxCell>
        <mxCell id="6fJ42V7ynfqkldquAGAS-34" value="" style="endArrow=classic;html=1;rounded=0;entryX=0;entryY=0.5;entryDx=0;entryDy=0;exitX=1;exitY=0.5;exitDx=0;exitDy=0;" edge="1" parent="1" source="6fJ42V7ynfqkldquAGAS-3" target="6fJ42V7ynfqkldquAGAS-23">
          <mxGeometry width="50" height="50" relative="1" as="geometry">
            <mxPoint x="639" y="340" as="sourcePoint" />
            <mxPoint x="689" y="290" as="targetPoint" />
          </mxGeometry>
        </mxCell>
        <mxCell id="6fJ42V7ynfqkldquAGAS-35" value="6" style="swimlane;html=1;startSize=20;" vertex="1" parent="1">
          <mxGeometry x="880" y="60" width="160" height="420" as="geometry" />
        </mxCell>
      </root>
    </mxGraphModel>
  </diagram>
</mxfile>
